<svg xmlns="http://www.w3.org/2000/svg" viewBox="0 0 960 640" role="img" aria-labelledby="title desc">
  <title id="title">No image</title>
  <desc id="desc">Placeholder visual for missing product images.</desc>
  <defs>
    <linearGradient id="bg" x1="0%" y1="0%" x2="100%" y2="100%">
      <stop offset="0%" stop-color="#fbf7ef"/>
      <stop offset="100%" stop-color="#f0e2c9"/>
    </linearGradient>
    <linearGradient id="frame" x1="0%" y1="0%" x2="100%" y2="100%">
      <stop offset="0%" stop-color="#4B7B64"/>
      <stop offset="100%" stop-color="#7EA58A"/>
    </linearGradient>
  </defs>
  <rect x="0" y="0" width="960" height="640" rx="56" fill="url(#bg)"/>
  <rect x="58" y="58" width="844" height="524" rx="44" fill="none" stroke="rgba(75,123,100,0.16)" stroke-width="4"/>
  <circle cx="480" cy="252" r="84" fill="rgba(75,123,100,0.12)"/>
  <path d="M420 292h120a20 20 0 0 0 20-20V220a20 20 0 0 0-20-20H420a20 20 0 0 0-20 20v52a20 20 0 0 0 20 20Zm20-72h72l-16 20-16-14-24 30-16-18Z" fill="url(#frame)"/>
  <path d="M392 402c34-26 74-40 88-40s54 14 88 40" fill="none" stroke="url(#frame)" stroke-width="14" stroke-linecap="round"/>
  <text x="480" y="492" text-anchor="middle" font-family="Poppins, Arial, sans-serif" font-size="44" font-weight="700" fill="#4B7B64">No image</text>
</svg>
